<?xml version="1.0" encoding="UTF-8"?>
<svg width="137" height="36" viewBox="0 0 137 36" fill="none" xmlns="http://www.w3.org/2000/svg">
<g>
<g clip-path="url(#clip0)">
<g >
<g>
<g>
<path id="Vector" d="M41.32 0H20.93C18.6113 0.0287051 16.3209 0.514051 14.1898 1.4283C12.0587 2.34255 10.1287 3.66779 8.51002 5.32827C6.89133 6.98875 5.61571 8.95193 4.75607 11.1056C3.89642 13.2593 3.4696 15.5613 3.5 17.88C3.49597 20.6973 4.1464 23.477 5.4 26H0.54C0.395871 26.0026 0.258532 26.0617 0.15754 26.1646C0.0565477 26.2674 -2.38213e-05 26.4058 7.52477e-09 26.55V35.23C-2.38213e-05 35.3742 0.0565477 35.5126 0.15754 35.6154C0.258532 35.7183 0.395871 35.7774 0.54 35.78H20.93C25.6078 35.7115 30.068 33.7928 33.3346 30.4437C36.6012 27.0947 38.4081 22.5881 38.36 17.91V17.91C38.3588 15.089 37.7051 12.3064 36.45 9.78H41.31C41.3818 9.78001 41.4528 9.76572 41.519 9.73796C41.5852 9.7102 41.6451 9.66953 41.6954 9.61832C41.7457 9.56711 41.7853 9.5064 41.8118 9.43972C41.8383 9.37305 41.8513 9.30175 41.85 9.23V0.55C41.8513 0.479083 41.8387 0.4086 41.8127 0.342576C41.7868 0.276552 41.7482 0.216281 41.6989 0.165207C41.6497 0.114132 41.5909 0.073254 41.5259 0.0449074C41.4609 0.0165608 41.3909 0.00130112 41.32 0V0ZM20.93 9.77C21.9832 9.78173 23.0236 10.0013 23.9917 10.4161C24.9598 10.8309 25.8365 11.4328 26.5714 12.1872C27.3063 12.9417 27.885 13.8338 28.2743 14.8124C28.6636 15.791 28.8559 16.8369 28.84 17.89C28.8545 18.9431 28.661 19.9887 28.2705 20.9668C27.8799 21.9449 27.3001 22.8363 26.5643 23.5898C25.8284 24.3433 24.951 24.9441 23.9825 25.3577C23.0139 25.7713 21.9731 25.9896 20.92 26C19.8669 25.9896 18.8261 25.7713 17.8575 25.3577C16.889 24.9441 16.0116 24.3433 15.2757 23.5898C14.5399 22.8363 13.9601 21.9449 13.5695 20.9668C13.179 19.9887 12.9855 18.9431 13 17.89C12.9841 16.8369 13.1764 15.791 13.5657 14.8124C13.955 13.8338 14.5337 12.9417 15.2686 12.1872C16.0035 11.4328 16.8802 10.8309 17.8483 10.4161C18.8164 10.0013 19.8568 9.78173 20.91 9.77H20.93ZM40.78 8.67H20.93C19.7336 8.68436 18.5518 8.93424 17.452 9.40538C16.3522 9.87651 15.356 10.5597 14.5203 11.4158C13.6845 12.272 13.0256 13.2844 12.5812 14.3953C12.1367 15.5061 11.9155 16.6936 11.93 17.89C11.9115 19.0879 12.13 20.2777 12.5729 21.3908C13.0158 22.504 13.6743 23.5187 14.5107 24.3764C15.3471 25.2342 16.3448 25.9182 17.4465 26.389C18.5481 26.8599 19.732 27.1083 20.93 27.12C23.2549 27.1019 25.4843 26.1926 27.1588 24.5796C28.8332 22.9665 29.8251 20.7726 29.93 18.45H37.31C37.2245 22.7572 35.466 26.8619 32.4067 29.8951C29.3474 32.9282 25.2277 34.6515 20.92 34.7V34.7H20.19H20L19.4 34.65H19.03H18.69L18.27 34.57C15.3361 34.0546 12.6 32.7436 10.36 30.78L10.12 30.56L9.89 30.35L9.43 29.9L9.37 29.83C9.21 29.67 9.06 29.51 8.92 29.35L8.84 29.26C8.5 28.87 8.18 28.47 7.84 28.07C7.54 27.65 7.25 27.21 6.98 26.76C4.67045 22.9407 3.94967 18.3683 4.97226 14.0237C5.99485 9.67909 8.67937 5.90824 12.45 3.52C14.9972 1.94179 17.9335 1.10384 20.93 1.1H40.78V8.67Z" fill="#F22556"/>
<g>
<g>
<path id="Vector_2" d="M56.39 33.11C55.8815 34.006 55.1243 34.7354 54.21 35.21C53.1054 35.7694 51.8775 36.0412 50.64 36C49.3868 36.0154 48.145 35.7596 47 35.25C45.9607 34.7913 45.0605 34.067 44.39 33.15C43.7115 32.2318 43.3091 31.139 43.23 30H46.72C46.8052 30.8841 47.2064 31.7079 47.85 32.32C48.2006 32.655 48.615 32.9162 49.0685 33.088C49.522 33.2598 50.0054 33.3387 50.49 33.32C50.9111 33.3445 51.3328 33.2835 51.7298 33.1409C52.1267 32.9983 52.4908 32.7769 52.8 32.49C53.0713 32.2118 53.283 31.8812 53.4223 31.5184C53.5615 31.1556 53.6254 30.7683 53.61 30.38C53.6359 29.7147 53.4231 29.0621 53.01 28.54C52.6022 28.0586 52.0935 27.6728 51.52 27.41C50.93 27.14 50.12 26.83 49.09 26.47C48.029 26.1468 46.9956 25.7388 46 25.25C45.1974 24.8253 44.5108 24.2108 44 23.46C43.4104 22.5406 43.1204 21.4611 43.17 20.37C43.1497 19.3368 43.4275 18.3196 43.97 17.44C44.517 16.5601 45.3145 15.8636 46.26 15.44C47.3384 14.9598 48.5098 14.7241 49.69 14.75C51.4572 14.6548 53.1997 15.1978 54.6 16.28C55.1943 16.775 55.6836 17.3839 56.0391 18.0709C56.3946 18.7578 56.6091 19.5089 56.67 20.28H53.15C53.0216 19.5143 52.6458 18.8117 52.08 18.28C51.7558 17.9913 51.3778 17.7693 50.9677 17.6269C50.5576 17.4844 50.1234 17.4243 49.69 17.45C48.893 17.4109 48.1097 17.6673 47.49 18.17C47.2068 18.4319 46.9853 18.7535 46.8418 19.1115C46.6982 19.4695 46.6361 19.855 46.66 20.24C46.6315 20.8762 46.8339 21.5013 47.23 22C47.6207 22.4725 48.1175 22.846 48.68 23.09C49.26 23.35 50.05 23.66 51.06 24.02C52.1387 24.3472 53.1888 24.762 54.2 25.26C55.0224 25.702 55.7283 26.3326 56.26 27.1C56.86 28.0449 57.1534 29.152 57.1 30.27C57.1061 31.2613 56.8619 32.2382 56.39 33.11Z" fill="white"/>
<path id="Vector_3" d="M73.35 15.06V17.76H67.71V35.76H64.42V17.76H58.82V15.06H73.35Z" fill="white"/>
<path id="Vector_4" d="M78.9 15.06V27.36C78.7803 28.8326 79.2036 30.2981 80.09 31.48C80.977 32.3444 82.1665 32.8281 83.405 32.8281C84.6435 32.8281 85.833 32.3444 86.72 31.48C87.6022 30.296 88.025 28.8321 87.91 27.36V15.06H91.17V27.36C91.17 30.2 90.4567 32.35 89.03 33.81C88.2872 34.5465 87.3999 35.1213 86.4241 35.4982C85.4483 35.8751 84.405 36.046 83.36 36C82.324 36.0449 81.2901 35.8734 80.3242 35.4963C79.3582 35.1192 78.4815 34.5449 77.75 33.81C76.3433 32.35 75.64 30.2 75.64 27.36V15.06H78.9Z" fill="white"/>
<path id="Vector_5" d="M110.17 16.79C111.833 18.1237 113.001 19.9753 113.49 22.05H110C109.573 20.8384 108.78 19.7898 107.73 19.05C106.605 18.3095 105.276 17.9421 103.93 18C102.79 17.9852 101.67 18.3051 100.71 18.92C99.738 19.5566 98.9651 20.4542 98.48 21.51C97.9103 22.7647 97.6333 24.1325 97.67 25.51C97.6423 26.8609 97.9192 28.2007 98.48 29.43C98.9676 30.4869 99.7398 31.3871 100.71 32.03C101.673 32.6377 102.791 32.9538 103.93 32.94C105.287 32.9826 106.623 32.5979 107.75 31.84C108.796 31.096 109.588 30.0488 110.02 28.84H113.49C113.004 30.9129 111.834 32.762 110.17 34.09C108.39 35.4099 106.214 36.0837 104 36C102.218 36.0374 100.461 35.573 98.93 34.66C97.4641 33.7664 96.2844 32.4722 95.53 30.93C94.7042 29.2269 94.293 27.3525 94.33 25.46C94.2915 23.5717 94.6992 21.701 95.52 20C96.275 18.453 97.4541 17.1525 98.92 16.25C100.448 15.3142 102.209 14.8289 104 14.85C106.218 14.771 108.396 15.4558 110.17 16.79V16.79Z" fill="white"/>
<path id="Vector_6" d="M132 15.06L125.28 28.25V35.79H122V28.25L115.25 15.06H119L123.63 24.66L128.27 15.06H132Z" fill="white"/>
</g>
<g id="Group_3">
<path id="Vector_7" d="M137 32.09V35.79H133.31V32.09H137Z" fill="#F22556"/>
</g>
</g>
</g>
</g>
</g>
</g>
</g>
<defs>
<clipPath id="clip0">
<rect width="137" height="36" fill="white"/>
</clipPath>
</defs>
</svg>
